<svg width="24" height="24" viewBox="0 0 24 24" fill="none" xmlns="http://www.w3.org/2000/svg">
<g clip-path="url(#clip0)">
<path d="M23.5723 3.53785C23.0004 2.96579 22.0746 2.96574 21.5026 3.5378L7.68259 17.3578L2.49793 12.1731C1.926 11.6011 1.00017 11.601 0.428202 12.1731C-0.142409 12.7437 -0.142409 13.6722 0.428202 14.2428L6.64778 20.4624C7.21961 21.0342 8.14558 21.0343 8.71745 20.4624L23.5723 5.60748C24.1429 5.03687 24.1429 4.10837 23.5723 3.53785Z" fill="#B7E183"/>
<path d="M23.572 3.53785C23.0001 2.96579 22.0743 2.96574 21.5023 3.5378L11.4146 13.6256V17.7649L23.572 5.60748C24.1426 5.03687 24.1426 4.10837 23.572 3.53785Z" fill="#71DE56"/>
</g>
<defs>
<clipPath id="clip0">
<rect width="24" height="24" fill="white"/>
</clipPath>
</defs>
</svg>
