<svg width="110" height="110" viewBox="0 0 110 110" fill="none" xmlns="http://www.w3.org/2000/svg">
<path d="M55 110C85.3757 110 110 85.3757 110 55C110 24.6243 85.3757 0 55 0C24.6243 0 0 24.6243 0 55C0 85.3757 24.6243 110 55 110Z" fill="#F97C15"/>
<path d="M110 55C110 85.3746 85.3746 110 55 110C41.25 110 28.6773 104.953 19.0352 96.6131C26.834 100.856 35.7758 103.267 45.2805 103.267C75.6572 103.267 100.28 78.6414 100.28 48.2668C100.28 31.6443 92.9092 16.7471 81.2561 6.66229C98.3791 15.9822 110 34.1344 110 55V55Z" fill="#E86300"/>
<path d="M55 98.8408C79.2126 98.8408 98.8408 79.2126 98.8408 55C98.8408 30.7874 79.2126 11.1592 55 11.1592C30.7874 11.1592 11.1592 30.7874 11.1592 55C11.1592 79.2126 30.7874 98.8408 55 98.8408Z" fill="#FFC751"/>
<path d="M87.5009 25.5776C86.526 24.5014 85.4986 23.4738 84.4222 22.4988L57.177 49.7445V11.2131C56.4558 11.1779 55.7301 11.159 55 11.159C54.27 11.159 53.5444 11.1777 52.823 11.2131V49.7445L25.5778 22.4991C24.5017 23.474 23.4741 24.5014 22.4991 25.5778L49.7445 52.8232H11.2131C11.1779 53.5444 11.159 54.2702 11.159 55.0002C11.159 55.7302 11.1777 56.4558 11.2131 57.1772H49.7445L22.4991 84.4224C23.4741 85.4985 24.5014 86.5262 25.5778 87.5011L52.8232 60.2557V98.7871C53.5444 98.8223 54.2702 98.8412 55.0002 98.8412C55.7303 98.8412 56.4558 98.8225 57.1772 98.7871V60.2555L84.4227 87.5009C85.4988 86.5259 86.5264 85.4985 87.5014 84.4222L60.2555 57.177H98.7869C98.8221 56.4558 98.841 55.73 98.841 55C98.841 54.2699 98.8223 53.5444 98.7869 52.823H60.2555L87.5009 25.5776Z" fill="#FF993A"/>
<path d="M44.7498 12.3643V28.8192C44.7498 29.8182 44.3459 30.7205 43.6906 31.3737C43.0375 32.0289 42.133 32.4328 41.1361 32.4328C39.1402 32.4328 37.5203 30.8151 37.5203 28.8192V27.4528C37.5203 26.4838 37.1272 25.6073 36.4934 24.9713C35.8574 24.3375 34.9809 23.9444 34.0119 23.9444C32.074 23.9444 30.5014 25.5149 30.5014 27.4528V42.8764C30.5014 44.0623 30.0201 45.1387 29.2424 45.9164C28.4647 46.6963 27.3904 47.1776 26.2024 47.1776C23.8262 47.1776 21.9012 45.2504 21.9012 42.8764V26.2518C27.7901 19.4756 35.7285 14.5256 44.7498 12.3643V12.3643Z" fill="#FFE059"/>
<path d="M94.6387 36.2463V60.2787C94.6387 61.2778 94.2348 62.1801 93.5795 62.8332C92.9264 63.4885 92.0219 63.8924 91.025 63.8924C89.0291 63.8924 87.4092 62.2746 87.4092 60.2787V58.9123C87.4092 57.9434 87.016 57.0668 86.3822 56.4309C85.7463 55.7971 84.8697 55.4039 83.9008 55.4039C81.9629 55.4039 80.3902 56.9744 80.3902 58.9123V80.7813C80.3902 81.9672 79.909 83.0436 79.1313 83.8213C78.3535 84.6012 77.2793 85.0825 76.0912 85.0825C73.715 85.0825 71.79 83.1553 71.79 80.7813V41.2887L87.5016 25.5772C90.3719 28.7461 92.7867 32.3383 94.6387 36.2463V36.2463Z" fill="#FFE059"/>
<path d="M44.7508 57.1764V83.101C44.7508 85.475 42.8258 87.4021 40.4496 87.4021C39.2615 87.4021 38.1873 86.9209 37.4096 86.141C36.6318 85.3633 36.1506 84.2869 36.1506 83.101V67.6773C36.1506 65.7394 34.5779 64.1689 32.64 64.1689C31.6711 64.1689 30.7945 64.5621 30.1586 65.1959C29.5248 65.8318 29.1317 66.7084 29.1317 67.6773V72.9109C29.1317 74.9068 27.5117 76.5246 25.5158 76.5246C24.519 76.5246 23.6145 76.1207 22.9613 75.4654C22.3061 74.8123 21.9022 73.9099 21.9022 72.9109V57.1764H44.7508Z" fill="#FFE059"/>
<path d="M0 55C0 66.0131 3.23748 76.2695 8.81246 84.8703C10.7265 87.8231 14.8612 88.2868 17.3583 85.8075C17.3847 85.7811 17.4114 85.7548 17.4378 85.7284C19.294 83.8855 19.6002 80.9954 18.1781 78.7999C13.7382 71.9462 11.159 63.7746 11.159 55C11.159 33.133 27.1683 15.0059 48.1057 11.6989C50.8206 11.27 52.8241 8.93704 52.8241 6.18833C52.8241 2.74804 49.743 0.144564 46.3448 0.681673C20.0823 4.83331 0 27.5707 0 55Z" fill="#FF993A"/>
<path d="M10.3991 30.847L10.3993 30.8473C12.8518 33.2997 16.9407 32.9557 18.9129 30.1028C23.6717 23.2186 30.3493 17.7624 38.173 14.5075C40.2671 13.6363 41.6466 11.6097 41.6466 9.34161C41.6466 5.37066 37.6108 2.65997 33.943 4.1815C24.133 8.25064 15.756 15.0775 9.77844 23.6947C8.23328 25.9218 8.48228 28.9302 10.3991 30.847V30.847Z" fill="#FFAF40"/>
<path d="M60.9722 34.7899C66.2347 34.7899 70.5007 30.5238 70.5007 25.2613C70.5007 19.9989 66.2347 15.7328 60.9722 15.7328C55.7097 15.7328 51.4437 19.9989 51.4437 25.2613C51.4437 30.5238 55.7097 34.7899 60.9722 34.7899Z" fill="#EF4343"/>
<path d="M59.1634 30.4232C63.0132 30.4232 66.134 27.3023 66.134 23.4526C66.134 19.6028 63.0132 16.482 59.1634 16.482C55.3136 16.482 52.1928 19.6028 52.1928 23.4526C52.1928 27.3023 55.3136 30.4232 59.1634 30.4232Z" fill="#F75E5E"/>
<path d="M57.6256 92.631C62.8373 92.631 67.0622 88.4061 67.0622 83.1944C67.0622 77.9827 62.8373 73.7578 57.6256 73.7578C52.4139 73.7578 48.189 77.9827 48.189 83.1944C48.189 88.4061 52.4139 92.631 57.6256 92.631Z" fill="#EF4343"/>
<path d="M55.8345 88.3066C59.6471 88.3066 62.7378 85.2159 62.7378 81.4032C62.7378 77.5906 59.6471 74.4999 55.8345 74.4999C52.0218 74.4999 48.9311 77.5906 48.9311 81.4032C48.9311 85.2159 52.0218 88.3066 55.8345 88.3066Z" fill="#F75E5E"/>
<path d="M35.1169 51.6706C40.3286 51.6706 44.5535 47.4457 44.5535 42.234C44.5535 37.0223 40.3286 32.7974 35.1169 32.7974C29.9052 32.7974 25.6803 37.0223 25.6803 42.234C25.6803 47.4457 29.9052 51.6706 35.1169 51.6706Z" fill="#EF4343"/>
<path d="M33.3257 47.346C37.1383 47.346 40.2291 44.2553 40.2291 40.4426C40.2291 36.63 37.1383 33.5393 33.3257 33.5393C29.5131 33.5393 26.4224 36.63 26.4224 40.4426C26.4224 44.2553 29.5131 47.346 33.3257 47.346Z" fill="#F75E5E"/>
<path d="M84.2235 47.178C87.1262 47.178 89.4794 44.8248 89.4794 41.922C89.4794 39.0193 87.1262 36.6661 84.2235 36.6661C81.3207 36.6661 78.9675 39.0193 78.9675 41.922C78.9675 44.8248 81.3207 47.178 84.2235 47.178Z" fill="#EF4343"/>
<path d="M83.2259 44.7694C85.3495 44.7694 87.071 43.0479 87.071 40.9243C87.071 38.8007 85.3495 37.0793 83.2259 37.0793C81.1024 37.0793 79.3809 38.8007 79.3809 40.9243C79.3809 43.0479 81.1024 44.7694 83.2259 44.7694Z" fill="#F75E5E"/>
<path d="M73.7006 76.3806C76.6034 76.3806 78.9566 74.0274 78.9566 71.1247C78.9566 68.2219 76.6034 65.8687 73.7006 65.8687C70.7979 65.8687 68.4447 68.2219 68.4447 71.1247C68.4447 74.0274 70.7979 76.3806 73.7006 76.3806Z" fill="#EF4343"/>
<path d="M72.7029 73.9722C74.8265 73.9722 76.548 72.2507 76.548 70.1271C76.548 68.0036 74.8265 66.2821 72.7029 66.2821C70.5793 66.2821 68.8578 68.0036 68.8578 70.1271C68.8578 72.2507 70.5793 73.9722 72.7029 73.9722Z" fill="#F75E5E"/>
<path d="M63.1301 54.7779C66.0329 54.7779 68.3861 52.4247 68.3861 49.5219C68.3861 46.6192 66.0329 44.266 63.1301 44.266C60.2274 44.266 57.8742 46.6192 57.8742 49.5219C57.8742 52.4247 60.2274 54.7779 63.1301 54.7779Z" fill="#EF4343"/>
<path d="M62.1324 52.3693C64.256 52.3693 65.9775 50.6478 65.9775 48.5242C65.9775 46.4006 64.256 44.6791 62.1324 44.6791C60.0088 44.6791 58.2874 46.4006 58.2874 48.5242C58.2874 50.6478 60.0088 52.3693 62.1324 52.3693Z" fill="#F75E5E"/>
<path d="M43.9735 74.5708C46.8763 74.5708 49.2295 72.2176 49.2295 69.3148C49.2295 66.4121 46.8763 64.0589 43.9735 64.0589C41.0708 64.0589 38.7176 66.4121 38.7176 69.3148C38.7176 72.2176 41.0708 74.5708 43.9735 74.5708Z" fill="#EF4343"/>
<path d="M42.9758 72.1624C45.0994 72.1624 46.8209 70.4409 46.8209 68.3173C46.8209 66.1938 45.0994 64.4723 42.9758 64.4723C40.8522 64.4723 39.1307 66.1938 39.1307 68.3173C39.1307 70.4409 40.8522 72.1624 42.9758 72.1624Z" fill="#F75E5E"/>
<path d="M92.5186 77.8323C96.2231 77.8323 99.2262 74.8292 99.2262 71.1247C99.2262 67.4202 96.2231 64.4171 92.5186 64.4171C88.8141 64.4171 85.811 67.4202 85.811 71.1247C85.811 74.8292 88.8141 77.8323 92.5186 77.8323Z" fill="#EF4343"/>
<path d="M91.2454 74.7586C93.9555 74.7586 96.1524 72.5616 96.1524 69.8515C96.1524 67.1414 93.9555 64.9445 91.2454 64.9445C88.5353 64.9445 86.3384 67.1414 86.3384 69.8515C86.3384 72.5616 88.5353 74.7586 91.2454 74.7586Z" fill="#F75E5E"/>
<path d="M37.388 25.7284C41.0925 25.7284 44.0956 22.7253 44.0956 19.0207C44.0956 15.3162 41.0925 12.3131 37.388 12.3131C33.6835 12.3131 30.6804 15.3162 30.6804 19.0207C30.6804 22.7253 33.6835 25.7284 37.388 25.7284Z" fill="#EF4343"/>
<path d="M36.1146 22.6546C38.8247 22.6546 41.0216 20.4577 41.0216 17.7476C41.0216 15.0375 38.8247 12.8406 36.1146 12.8406C33.4045 12.8406 31.2076 15.0375 31.2076 17.7476C31.2076 20.4577 33.4045 22.6546 36.1146 22.6546Z" fill="#F75E5E"/>
<path d="M23.2671 68.2174C26.9717 68.2174 29.9748 65.2143 29.9748 61.5098C29.9748 57.8052 26.9717 54.8021 23.2671 54.8021C19.5626 54.8021 16.5595 57.8052 16.5595 61.5098C16.5595 65.2143 19.5626 68.2174 23.2671 68.2174Z" fill="#EF4343"/>
<path d="M21.994 65.1436C24.7041 65.1436 26.901 62.9467 26.901 60.2366C26.901 57.5265 24.7041 55.3296 21.994 55.3296C19.2839 55.3296 17.087 57.5265 17.087 60.2366C17.087 62.9467 19.2839 65.1436 21.994 65.1436Z" fill="#F75E5E"/>
</svg>
