<svg height="512pt" viewBox="0 0 512 512" width="512pt" xmlns="http://www.w3.org/2000/svg"><path d="m504.46875 256c0 137.226562-111.242188 248.46875-248.46875 248.46875s-248.46875-111.242188-248.46875-248.46875 111.242188-248.46875 248.46875-248.46875 248.46875 111.242188 248.46875 248.46875zm0 0" fill="#d37e0e"/><path d="m481.882812 256c0 124.75-101.132812 225.882812-225.882812 225.882812s-225.882812-101.132812-225.882812-225.882812 101.132812-225.882812 225.882812-225.882812 225.882812 101.132812 225.882812 225.882812zm0 0" fill="#de9c2f"/><path d="m466.824219 256c0 116.433594-94.390625 210.824219-210.824219 210.824219s-210.824219-94.390625-210.824219-210.824219 94.390625-210.824219 210.824219-210.824219 210.824219 94.390625 210.824219 210.824219zm0 0" fill="#fef0bd"/><path d="m254.117188 94.117188c0 8.316406-6.742188 15.058593-15.058594 15.058593s-15.058594-6.742187-15.058594-15.058593c0-8.316407 6.742188-15.058594 15.058594-15.058594s15.058594 6.742187 15.058594 15.058594zm0 0" fill="#ff6969"/><path d="m210.824219 400.941406c0 8.316406-6.742188 15.058594-15.058594 15.058594s-15.058594-6.742188-15.058594-15.058594 6.742188-15.058594 15.058594-15.058594 15.058594 6.742188 15.058594 15.058594zm0 0" fill="#ff6969"/><path d="m107.292969 272.941406c0 8.316406-6.742188 15.058594-15.058594 15.058594s-15.058594-6.742188-15.058594-15.058594 6.742188-15.058594 15.058594-15.058594 15.058594 6.742188 15.058594 15.058594zm0 0" fill="#ff6969"/><path d="m201.410156 301.175781c0 8.316407-6.742187 15.058594-15.058594 15.058594-8.316406 0-15.058593-6.742187-15.058593-15.058594 0-8.316406 6.742187-15.058593 15.058593-15.058593 8.316407 0 15.058594 6.742187 15.058594 15.058593zm0 0" fill="#ff6969"/><path d="m128 167.53125c0 8.316406-6.742188 15.058594-15.058594 15.058594s-15.058594-6.742188-15.058594-15.058594c0-8.320312 6.742188-15.0625 15.058594-15.0625s15.058594 6.742188 15.058594 15.0625zm0 0" fill="#ff6969"/><path d="m318.117188 152.46875c0 8.320312-6.742188 15.0625-15.058594 15.0625s-15.058594-6.742188-15.058594-15.0625c0-8.316406 6.742188-15.058594 15.058594-15.058594s15.058594 6.742188 15.058594 15.058594zm0 0" fill="#ff6969"/><path d="m225.882812 152.46875c0 8.320312-6.742187 15.0625-15.058593 15.0625-8.316407 0-15.058594-6.742188-15.058594-15.0625 0-8.316406 6.742187-15.058594 15.058594-15.058594 8.316406 0 15.058593 6.742188 15.058593 15.058594zm0 0" fill="#ff6969"/><path d="m427.292969 297.410156c0 8.320313-6.742188 15.058594-15.058594 15.058594s-15.058594-6.738281-15.058594-15.058594c0-8.316406 6.742188-15.058594 15.058594-15.058594s15.058594 6.742188 15.058594 15.058594zm0 0" fill="#ff6969"/><path d="m353.882812 363.292969c0 10.398437-8.429687 18.824219-18.824218 18.824219-10.394532 0-18.824219-8.425782-18.824219-18.824219 0-10.394531 8.429687-18.824219 18.824219-18.824219 10.394531 0 18.824218 8.429688 18.824218 18.824219zm0 0" fill="#ff6969"/><path d="m453.648438 188.234375c0 10.398437-8.429688 18.824219-18.824219 18.824219-10.398438 0-18.824219-8.425782-18.824219-18.824219 0-10.394531 8.425781-18.824219 18.824219-18.824219 10.394531 0 18.824219 8.429688 18.824219 18.824219zm0 0" fill="#ff6969"/><path d="m112.941406 190.117188c-12.457031 0-22.589844-10.132813-22.589844-22.585938 0-12.457031 10.132813-22.589844 22.589844-22.589844 12.457032 0 22.589844 10.132813 22.589844 22.589844 0 12.453125-10.132812 22.585938-22.589844 22.585938zm0-30.117188c-4.152344 0-7.53125 3.378906-7.53125 7.53125 0 4.148438 3.378906 7.527344 7.53125 7.527344s7.527344-3.378906 7.527344-7.527344c0-4.152344-3.375-7.53125-7.527344-7.53125zm0 0"/><path d="m303.058594 175.058594c-12.457032 0-22.589844-10.132813-22.589844-22.589844 0-12.453125 10.132812-22.585938 22.589844-22.585938 12.457031 0 22.589844 10.132813 22.589844 22.585938 0 12.457031-10.132813 22.589844-22.589844 22.589844zm0-30.117188c-4.152344 0-7.527344 3.378906-7.527344 7.527344 0 4.152344 3.375 7.53125 7.527344 7.53125s7.53125-3.378906 7.53125-7.53125c0-4.148438-3.378906-7.527344-7.53125-7.527344zm0 0"/><path d="m210.824219 175.058594c-12.457031 0-22.589844-10.132813-22.589844-22.589844 0-12.453125 10.132813-22.585938 22.589844-22.585938 12.453125 0 22.585937 10.132813 22.585937 22.585938 0 12.457031-10.132812 22.589844-22.585937 22.589844zm0-30.117188c-4.152344 0-7.53125 3.378906-7.53125 7.527344 0 4.152344 3.378906 7.53125 7.53125 7.53125 4.152343 0 7.527343-3.378906 7.527343-7.53125 0-4.148438-3.375-7.527344-7.527343-7.527344zm0 0"/><path d="m437.019531 74.980469c-48.351562-48.351563-112.640625-74.980469-181.019531-74.980469s-132.667969 26.628906-181.019531 74.980469c-48.351563 48.351562-74.980469 112.640625-74.980469 181.019531s26.628906 132.667969 74.980469 181.019531c48.351562 48.351563 112.640625 74.980469 181.019531 74.980469s132.667969-26.628906 181.019531-74.980469c48.351563-48.351562 74.980469-112.640625 74.980469-181.019531s-26.628906-132.667969-74.980469-181.019531zm-2.195312 86.902343c-14.53125 0-26.355469 11.820313-26.355469 26.351563s11.824219 26.355469 26.355469 26.355469c7.195312 0 13.722656-2.902344 18.484375-7.59375 3.390625 13.652344 5.402344 27.839844 5.867187 42.414062h-185l131.175781-131.175781c12.085938 13.09375 22.472657 27.769531 30.816407 43.683594-.445313-.023438-.894531-.035157-1.34375-.035157zm11.292969 26.351563c0 6.226563-5.066407 11.296875-11.292969 11.296875-6.226563 0-11.292969-5.070312-11.292969-11.296875s5.066406-11.292969 11.292969-11.292969c6.226562 0 11.292969 5.066406 11.292969 11.292969zm-137.410157 175.058594c0 14.53125 11.820313 26.355469 26.351563 26.355469 11.613281 0 21.492187-7.558594 24.992187-18.007813l33.714844 33.710937c-34.53125 31.875-80.09375 51.953126-130.234375 53.789063v-184.023437l63.183594 63.1875c-10.453125 3.5-18.007813 13.375-18.007813 24.988281zm26.351563-11.292969c6.226562 0 11.292968 5.066406 11.292968 11.292969 0 6.226562-5.066406 11.296875-11.292968 11.296875-6.226563 0-11.292969-5.070313-11.292969-11.296875 0-6.226563 5.066406-11.292969 11.292969-11.292969zm-60.882813-87.527344h184.929688c-2.070313 50.246094-22.460938 95.835938-54.660157 130.265625zm-10.644531-25.710937v-185.902344c50.617188 1.851563 96.5625 22.296875 131.207031 54.695313zm0-200.972657v-22.601562c59.25 1.808594 114.832031 24.910156 157.914062 65.660156l-15.984374 15.984375c-38.804688-36.496093-88.710938-57.25-141.929688-59.042969zm-24.472656 33.742188c-12.457032 0-22.589844 10.128906-22.589844 22.585938 0 12.457031 10.132812 22.589843 22.589844 22.589843 3.359375 0 6.542968-.742187 9.410156-2.0625v124.117188l-131.207031-131.207031c34.644531-32.398438 80.589843-52.84375 131.207031-54.695313v20.730469c-2.867188-1.320313-6.050781-2.058594-9.410156-2.058594zm7.53125 22.585938c0 4.152343-3.378906 7.53125-7.53125 7.53125s-7.527344-3.378907-7.527344-7.53125c0-4.152344 3.375-7.527344 7.527344-7.527344s7.53125 3.375 7.53125 7.527344zm-193.765625 155.296874c1.617187-50.515624 21.75-96.433593 53.824219-131.175781l131.171874 131.175781zm46.941406 23.527344c0 4.152344-3.378906 7.527344-7.53125 7.527344s-7.527344-3.375-7.527344-7.527344 3.375-7.53125 7.527344-7.53125 7.53125 3.378906 7.53125 7.53125zm-28.464844-8.46875c-1.0625 2.617188-1.652343 5.472656-1.652343 8.46875 0 12.457032 10.132812 22.589844 22.585937 22.589844 12.457031 0 22.589844-10.132812 22.589844-22.589844 0-2.992187-.59375-5.851562-1.65625-8.46875h124.652343l-29.921874 29.921875c-2.886719-9.152343-11.453126-15.804687-21.546876-15.804687-12.453124 0-22.585937 10.132812-22.585937 22.585937 0 10.09375 6.652344 18.660157 15.804687 21.546875l-72.015624 72.015625c-32.199219-34.429687-52.589844-80.019531-54.660157-130.265625zm122.582031 36.703125c0 4.152344-3.378906 7.53125-7.53125 7.53125-4.152343 0-7.527343-3.378906-7.527343-7.53125 0-4.152343 3.375-7.527343 7.527343-7.527343 4.152344 0 7.53125 3.375 7.53125 7.527343zm54.585938-26.058593v184.023437c-50.140625-1.835937-95.703125-21.914063-130.234375-53.789063zm-141.929688-178.285157-15.984374-15.984375c43.082031-40.75 98.664062-63.851562 157.914062-65.660156v22.601562c-53.21875 1.792969-103.125 22.546876-141.929688 59.042969zm-10.617187 10.679688c-36.140625 38.898437-56.601563 88.773437-58.167969 141.898437h-22.601562c1.578125-59.160156 24.390625-114.703125 64.789062-157.878906zm-58.097656 156.960937c2.003906 52.863282 22.726562 102.414063 59.007812 140.988282l-15.980469 15.984374c-40.539062-42.855468-63.605468-98.074218-65.628906-156.972656zm69.6875 151.605469c38.667969 35.929687 88.183593 56.355469 140.957031 58.132813v22.601562c-58.808594-1.792969-113.992188-24.570312-156.9375-64.753906zm156.019531 58.132813c52.773438-1.777344 102.289062-22.207032 140.957031-58.136719l15.980469 15.984375c-42.945312 40.183594-98.128906 62.960937-156.9375 64.753906zm151.636719-68.75c36.28125-38.574219 57.003906-88.125 59.007812-140.992188h22.601563c-2.019532 58.902344-25.089844 114.121094-65.625 156.972656zm59.078125-156.046876c-1.566406-53.128906-22.027344-103.003906-58.167969-141.898437l15.980469-15.984375c40.398437 43.175781 63.210937 98.71875 64.789062 157.882812zm0 0"/><path d="m195.765625 378.351562c-12.457031 0-22.589844 10.132813-22.589844 22.589844 0 12.457032 10.132813 22.589844 22.589844 22.589844 12.453125 0 22.585937-10.132812 22.585937-22.589844 0-12.457031-10.132812-22.589844-22.585937-22.589844zm0 30.117188c-4.152344 0-7.53125-3.375-7.53125-7.527344s3.378906-7.53125 7.53125-7.53125 7.527344 3.378906 7.527344 7.53125-3.375 7.527344-7.527344 7.527344zm0 0"/><path d="m434.824219 297.410156c0-12.453125-10.132813-22.585937-22.589844-22.585937-12.453125 0-22.585937 10.132812-22.585937 22.585937 0 12.457032 10.132812 22.589844 22.585937 22.589844 12.457031 0 22.589844-10.132812 22.589844-22.589844zm-30.117188 0c0-4.152344 3.375-7.527344 7.527344-7.527344s7.53125 3.375 7.53125 7.527344-3.378906 7.53125-7.53125 7.53125-7.527344-3.378906-7.527344-7.53125zm0 0"/><path d="m180.707031 126.117188h-15.058593v-11.292969c0-10.378907 8.441406-18.824219 18.820312-18.824219 2.078125 0 3.765625-1.6875 3.765625-3.765625v-11.292969h15.058594v11.292969c0 10.378906-8.441407 18.824219-18.824219 18.824219-2.074219 0-3.761719 1.6875-3.761719 3.765625zm0 0" fill="#ff9c43"/><path d="m323.363281 119.179688-11.292969-.148438c-5.027343-.066406-9.726562-2.085938-13.234374-5.6875-3.511719-3.601562-5.40625-8.355469-5.339844-13.382812.027344-2.074219-1.640625-3.785157-3.714844-3.8125l-11.292969-.148438.199219-15.058594 11.292969.148438c10.375.136718 18.710937 8.691406 18.574219 19.070312-.019532 1.355469.660156 2.257813 1.066406 2.675782.40625.417968 1.289062 1.121093 2.648437 1.136718l11.292969.148438zm0 0" fill="#76ac1c"/><path d="m398.328125 236.800781c-5.730469 0-11.390625-2.601562-15.085937-7.527343-.8125-1.085938-1.902344-1.386719-2.476563-1.46875-.578125-.085938-1.707031-.101563-2.792969.710937l-9.035156 6.773437-9.03125-12.050781 9.035156-6.773437c4.027344-3.015625 8.980469-4.28125 13.960938-3.570313 4.976562.710938 9.378906 3.320313 12.390625 7.347657 1.246093 1.65625 3.609375 1.996093 5.273437.753906l9.035156-6.773438 9.03125 12.050782-9.039062 6.773437c-3.378906 2.53125-7.335938 3.753906-11.265625 3.753906zm0 0" fill="#ff9c43"/><path d="m130 341.503906c-3.675781 0-7.269531-1.082031-10.398438-3.167968-4.183593-2.789063-7.03125-7.039063-8.019531-11.96875-.40625-2.035157-2.394531-3.351563-4.429687-2.949219l-11.074219 2.214843-2.957031-14.765624 11.074218-2.214844c10.179688-2.039063 20.117188 4.582031 22.152344 14.761718.410156 2.035157 2.394532 3.355469 4.433594 2.949219l11.074219-2.214843 2.953125 14.765624-11.074219 2.214844c-1.242187.25-2.492187.375-3.734375.375zm0 0" fill="#ff9c43"/><path d="m293.699219 438.835938-15.050781-.496094.371093-11.285156c.164063-5.027344 2.277344-9.6875 5.945313-13.125 3.671875-3.4375 8.472656-5.230469 13.484375-5.074219 2.070312.0625 3.820312-1.5625 3.886719-3.636719l.371093-11.289062 15.050781.492187-.371093 11.289063c-.339844 10.375-9.054688 18.535156-19.429688 18.195312-2.058593-.050781-3.816406 1.566406-3.886719 3.640625zm0 0" fill="#ff9c43"/><path d="m112.941406 220.234375h15.058594v15.058594h-15.058594zm0 0" fill="#de9c2f"/><path d="m67.765625 220.234375h15.058594v15.058594h-15.058594zm0 0" fill="#de9c2f"/><path d="m82.824219 205.175781h15.058593v15.058594h-15.058593zm0 0" fill="#fff"/><path d="m193.882812 227.765625h15.058594v15.058594h-15.058594zm0 0" fill="#de9c2f"/><path d="m173.175781 235.292969h-11.292969c-10.378906 0-18.824218-8.441407-18.824218-18.824219 0-10.378906 8.445312-18.820312 18.824218-18.820312h11.292969v15.058593h-11.292969c-2.078124 0-3.765624 1.6875-3.765624 3.761719 0 2.078125 1.6875 3.765625 3.765624 3.765625h11.292969zm0 0" fill="#76ac1c"/><path d="m350.441406 320.589844-7.988281-7.984375c-7.335937-7.339844-7.335937-19.28125 0-26.621094 7.34375-7.339844 19.285156-7.339844 26.621094 0l7.988281 7.984375-10.648438 10.648438-7.988281-7.984376c-1.464843-1.46875-3.855469-1.46875-5.324219 0-1.464843 1.464844-1.464843 3.855469 0 5.324219l7.988282 7.984375zm0 0" fill="#76ac1c"/><g fill="#de9c2f"><path d="m218.351562 182.589844h15.058594v15.058594h-15.058594zm0 0"/><path d="m139.292969 99.765625h15.058593v15.058594h-15.058593zm0 0"/><path d="m278.589844 182.589844h15.058594v15.058594h-15.058594zm0 0"/><path d="m384 160h15.058594v15.058594h-15.058594zm0 0"/><path d="m368.941406 175.058594h15.058594v15.058594h-15.058594zm0 0"/><path d="m323.765625 222.117188h15.058594v15.058593h-15.058594zm0 0"/><path d="m308.707031 272.941406h15.058594v15.058594h-15.058594zm0 0"/><path d="m331.292969 84.707031h15.058593v15.058594h-15.058593zm0 0"/><path d="m346.351562 99.765625h15.058594v15.058594h-15.058594zm0 0"/><path d="m376.46875 325.648438h15.0625v15.058593h-15.0625zm0 0"/><path d="m399.058594 355.765625h15.058594v15.058594h-15.058594zm0 0"/></g><path d="m233.410156 363.292969h-15.058594v-11.292969c0-2.074219-1.6875-3.765625-3.761718-3.765625-2.078125 0-3.765625 1.691406-3.765625 3.765625v11.292969h-15.058594v-11.292969c0-10.378906 8.441406-18.824219 18.824219-18.824219 10.378906 0 18.820312 8.445313 18.820312 18.824219zm0 0" fill="#76ac1c"/><path d="m218.351562 310.589844h15.058594v15.058594h-15.058594zm0 0" fill="#fff"/><path d="m143.058594 393.410156h15.058594v15.058594h-15.058594zm0 0" fill="#de9c2f"/><path d="m128 280.46875h15.058594v15.0625h-15.058594zm0 0" fill="#de9c2f"/><path d="m97.882812 348.234375h15.058594v15.058594h-15.058594zm0 0" fill="#de9c2f"/><path d="m218.351562 431.058594h15.058594v15.058594h-15.058594zm0 0" fill="#de9c2f"/><path d="m278.589844 333.175781h15.058594v15.058594h-15.058594zm0 0" fill="#de9c2f"/><path d="m278.589844 370.824219h15.058594v15.058593h-15.058594zm0 0" fill="#de9c2f"/><path d="m346.351562 400.941406h15.058594v15.058594h-15.058594zm0 0" fill="#de9c2f"/></svg>